<svg class="animated" id="freepik_stories-internet-on-the-go" xmlns="http://www.w3.org/2000/svg" viewBox="0 0 500 500" version="1.1" xmlns:xlink="http://www.w3.org/1999/xlink" xmlnsSvgjs="http://svgjs.com/svgjs"><style>svg#freepik_stories-internet-on-the-go:not(.animated) .animable {opacity: 0;}svg#freepik_stories-internet-on-the-go.animated #freepik--background-complete--inject-58 {animation: 6s Infinite  linear floating;animation-delay: 1s;}svg#freepik_stories-internet-on-the-go.animated #freepik--Shadow--inject-58 {animation: 6s Infinite  linear floating;animation-delay: 0s;}svg#freepik_stories-internet-on-the-go.animated #freepik--Character--inject-58 {animation: 6s Infinite  linear floating;animation-delay: 0s;}            @keyframes floating {                0% {                    opacity: 1;                    transform: translateY(0px);                }                50% {                    transform: translateY(-10px);                }                100% {                    opacity: 1;                    transform: translateY(0px);                }            }        </style><g id="freepik--background-complete--inject-58" class="animable animator-active" style="transform-origin: 250px 226.445px;"><rect y="382.4" width="500" height="0.25" style="fill: rgb(224, 224, 224); transform-origin: 250px 382.525px;" id="el5615v7xquvh" class="animable"></rect><rect x="352.57" y="392.99" width="16.21" height="0.25" style="fill: rgb(224, 224, 224); transform-origin: 360.675px 393.115px;" id="el7pyrsam8udw" class="animable"></rect><rect x="376.11" y="393.11" width="37.56" height="0.25" style="fill: rgb(224, 224, 224); transform-origin: 394.89px 393.235px;" id="elqr8ycbsr4uq" class="animable"></rect><rect x="269.75" y="397.64" width="39.24" height="0.25" style="fill: rgb(224, 224, 224); transform-origin: 289.37px 397.765px;" id="elxfzdrwojw8e" class="animable"></rect><rect x="173.59" y="388.97" width="61.85" height="0.25" style="fill: rgb(224, 224, 224); transform-origin: 204.515px 389.095px;" id="elhdgnhk3jsv" class="animable"></rect><rect x="75.42" y="391.19" width="42.46" height="0.25" style="fill: rgb(224, 224, 224); transform-origin: 96.65px 391.315px;" id="elvmyp5cg3rqh" class="animable"></rect><path d="M237,337.8H43.91a5.71,5.71,0,0,1-5.7-5.71V60.66A5.71,5.71,0,0,1,43.91,55H237a5.71,5.71,0,0,1,5.71,5.71V332.09A5.71,5.71,0,0,1,237,337.8ZM43.91,55.2a5.46,5.46,0,0,0-5.45,5.46V332.09a5.46,5.46,0,0,0,5.45,5.46H237a5.47,5.47,0,0,0,5.46-5.46V60.66A5.47,5.47,0,0,0,237,55.2Z" style="fill: rgb(224, 224, 224); transform-origin: 140.46px 196.4px;" id="ela9osqytwbgp" class="animable"></path><path d="M453.31,337.8H260.21a5.72,5.72,0,0,1-5.71-5.71V60.66A5.72,5.72,0,0,1,260.21,55h193.1A5.71,5.71,0,0,1,459,60.66V332.09A5.71,5.71,0,0,1,453.31,337.8ZM260.21,55.2a5.47,5.47,0,0,0-5.46,5.46V332.09a5.47,5.47,0,0,0,5.46,5.46h193.1a5.47,5.47,0,0,0,5.46-5.46V60.66a5.47,5.47,0,0,0-5.46-5.46Z" style="fill: rgb(224, 224, 224); transform-origin: 356.75px 196.4px;" id="el06v9yztn6hrb" class="animable"></path><path d="M418.32,349.5s18-12.82,2.62-31.6c-14.24-17.43-48.72-.3-48.72-.3s6.37-20.26-20.37-23.54-19.94,25.49-19.94,25.49c-20.38-10.24-21,1.5-19.2,10.28-5-2.67-11.13-3.51-16.31,2.83-11.83,14.48,2,24.36,2,24.36s-25.91,7.54-10.79,25.38H432.31C451.92,359.27,418.32,349.5,418.32,349.5Z" style="fill: rgb(224, 224, 224); transform-origin: 360.664px 338.1px;" id="el1e6jlq44rpu" class="animable"></path><rect x="161.97" y="120.66" width="109.76" height="242.76" style="fill: rgb(230, 230, 230); transform-origin: 216.85px 242.04px;" id="elu1kbixy0ld" class="animable"></rect><rect x="201.65" y="100.24" width="35.62" height="8.84" style="fill: rgb(230, 230, 230); transform-origin: 219.46px 104.66px;" id="el86bezp9v9hm" class="animable"></rect><rect x="202.56" y="100.24" width="35.62" height="8.84" style="fill: rgb(245, 245, 245); transform-origin: 220.37px 104.66px;" id="elrnk9vk5g0kq" class="animable"></rect><rect x="167.18" y="120.66" width="104.56" height="242.76" style="fill: rgb(245, 245, 245); transform-origin: 219.46px 242.04px;" id="eljsxresd9x5j" class="animable"></rect><g id="elvad7rcy4tf"><rect x="103.59" y="195.26" width="231.74" height="93.55" style="fill: rgb(240, 240, 240); transform-origin: 219.46px 242.035px; transform: rotate(90deg);" class="animable"></rect></g><g id="elo67isxudzf"><rect x="206.97" y="106.76" width="24.97" height="77.95" style="fill: rgb(230, 230, 230); transform-origin: 219.455px 145.735px; transform: rotate(90deg);" class="animable"></rect></g><g id="el49nb9wp9zl6"><rect x="206.97" y="138.86" width="24.97" height="77.95" style="fill: rgb(230, 230, 230); transform-origin: 219.455px 177.835px; transform: rotate(90deg);" class="animable"></rect></g><g id="el84ho1v6bd74"><rect x="206.97" y="170.96" width="24.97" height="77.95" style="fill: rgb(230, 230, 230); transform-origin: 219.455px 209.935px; transform: rotate(90deg);" class="animable"></rect></g><g id="eln8378j76btf"><rect x="206.97" y="203.06" width="24.97" height="77.95" style="fill: rgb(230, 230, 230); transform-origin: 219.455px 242.035px; transform: rotate(90deg);" class="animable"></rect></g><g id="elz84w5ezm16m"><rect x="206.97" y="235.16" width="24.97" height="77.95" style="fill: rgb(230, 230, 230); transform-origin: 219.455px 274.135px; transform: rotate(90deg);" class="animable"></rect></g><g id="elhitlio3ud6"><rect x="206.97" y="267.26" width="24.97" height="77.95" style="fill: rgb(230, 230, 230); transform-origin: 219.455px 306.235px; transform: rotate(90deg);" class="animable"></rect></g><g id="elgpl9jsma6e"><rect x="206.97" y="299.36" width="24.97" height="77.95" style="fill: rgb(230, 230, 230); transform-origin: 219.455px 338.335px; transform: rotate(90deg);" class="animable"></rect></g><g id="el897hvja1qpa"><rect x="149.65" y="241.32" width="231.74" height="1.43" style="fill: rgb(230, 230, 230); transform-origin: 265.52px 242.035px; transform: rotate(90deg);" class="animable"></rect></g><path d="M260.27,241.55a4.7,4.7,0,1,1-4.7-4.69A4.69,4.69,0,0,1,260.27,241.55Z" style="fill: rgb(250, 250, 250); transform-origin: 255.57px 241.56px;" id="el6bl1xxoxsf9" class="animable"></path><rect x="161.97" y="363.41" width="20.94" height="9.49" style="fill: rgb(230, 230, 230); transform-origin: 172.44px 368.155px;" id="elpnxn2elzkg" class="animable"></rect><g id="el61p9k57hdkx"><rect x="182.91" y="363.41" width="109.81" height="9.49" style="fill: rgb(245, 245, 245); transform-origin: 237.815px 368.155px; transform: rotate(180deg);" class="animable"></rect></g><rect x="161.97" y="372.91" width="41.88" height="9.49" style="fill: rgb(230, 230, 230); transform-origin: 182.91px 377.655px;" id="elsosl4m1ee1s" class="animable"></rect><g id="elun6flhfsa2i"><rect x="203.86" y="372.91" width="109.81" height="9.49" style="fill: rgb(245, 245, 245); transform-origin: 258.765px 377.655px; transform: rotate(180deg);" class="animable"></rect></g><rect x="301.9" y="120.66" width="129.83" height="129.56" style="fill: rgb(224, 224, 224); transform-origin: 366.815px 185.44px;" id="elhpw2b25i4n" class="animable"></rect><rect x="304.91" y="120.66" width="129.83" height="129.56" style="fill: rgb(245, 245, 245); transform-origin: 369.825px 185.44px;" id="elwhrzy4qadsf" class="animable"></rect><rect x="301.9" y="250.21" width="129.83" height="6.02" style="fill: rgb(224, 224, 224); transform-origin: 366.815px 253.22px;" id="elr42a7jyclt" class="animable"></rect><rect x="322.25" y="250.21" width="122.74" height="6.02" style="fill: rgb(245, 245, 245); transform-origin: 383.62px 253.22px;" id="el884qoqpcjky" class="animable"></rect><g id="el10e3e4r5wmqe"><rect x="311.13" y="125.93" width="117.4" height="119" style="fill: rgb(250, 250, 250); transform-origin: 369.83px 185.43px; transform: rotate(90deg);" class="animable"></rect></g><g id="elgt25ahi6245"><path d="M310.33,126.74V244.13h3.5s16.05-38.41,20.53-117.39Z" style="fill: rgb(224, 224, 224); opacity: 0.5; transform-origin: 322.345px 185.435px;" class="animable"></path></g><g id="elmngbqgzezc"><path d="M427.05,126.74V244.13h-3.51s-16-38.41-20.52-117.39Z" style="fill: rgb(224, 224, 224); opacity: 0.5; transform-origin: 415.035px 185.435px;" class="animable"></path></g><g id="elq6875yy15m"><rect x="369.49" y="184.3" width="117.4" height="2.28" style="fill: rgb(224, 224, 224); transform-origin: 428.19px 185.44px; transform: rotate(90deg);" class="animable"></rect></g><g id="elm2l56di9crs"><rect x="305.91" y="184.3" width="117.4" height="2.28" style="fill: rgb(224, 224, 224); transform-origin: 364.61px 185.44px; transform: rotate(90deg);" class="animable"></rect></g><rect x="307.15" y="181.35" width="125.35" height="8.16" style="fill: rgb(245, 245, 245); transform-origin: 369.825px 185.43px;" id="elj5sqfmiie2" class="animable"></rect><g id="el2s40xx0c4s6"><rect x="307.15" y="181.35" width="125.35" height="8.16" style="fill: rgb(245, 245, 245); transform-origin: 369.825px 185.43px; transform: rotate(90deg);" class="animable"></rect></g><rect x="63.35" y="120.66" width="64.92" height="129.56" style="fill: rgb(224, 224, 224); transform-origin: 95.81px 185.44px;" id="elm8qwvodprsk" class="animable"></rect><rect x="66.36" y="120.66" width="64.92" height="129.56" style="fill: rgb(245, 245, 245); transform-origin: 98.82px 185.44px;" id="eld4nwgwaqrz" class="animable"></rect><rect x="63.35" y="250.21" width="64.92" height="6.02" style="fill: rgb(224, 224, 224); transform-origin: 95.81px 253.22px;" id="elhwy9ow5fpq" class="animable"></rect><rect x="83.69" y="250.21" width="57.83" height="6.02" style="fill: rgb(245, 245, 245); transform-origin: 112.605px 253.22px;" id="elaocgw4wqde" class="animable"></rect><g id="elcaqemtzvhja"><rect x="40.12" y="158.39" width="117.4" height="54.09" style="fill: rgb(250, 250, 250); transform-origin: 98.82px 185.435px; transform: rotate(90deg);" class="animable"></rect></g><g id="ellj2s1ek4e3"><path d="M71.77,126.74V244.13h3.51s16-38.41,20.52-117.39Z" style="fill: rgb(224, 224, 224); opacity: 0.5; transform-origin: 83.785px 185.435px;" class="animable"></path></g><g id="elbw5wf5oqgqi"><path d="M123.58,126.74V244.13h-3.5s-16-38.41-20.53-117.39Z" style="fill: rgb(224, 224, 224); opacity: 0.5; transform-origin: 111.565px 185.435px;" class="animable"></path></g><g id="elfrt4bwdkvv"><rect x="66.02" y="184.3" width="117.4" height="2.28" style="fill: rgb(224, 224, 224); transform-origin: 124.72px 185.44px; transform: rotate(90deg);" class="animable"></rect></g><rect x="68.6" y="181.35" width="60.44" height="8.16" style="fill: rgb(245, 245, 245); transform-origin: 98.82px 185.43px;" id="el2znfe87hpuf" class="animable"></rect><path d="M84.14,359.91s-12.41-8.85-1.81-21.82c9.83-12,33.65-.2,33.65-.2s-4.4-14,14.06-16.27,13.77,17.61,13.77,17.61c14.08-7.08,14.49,1,13.26,7.1,3.47-1.84,7.69-2.43,11.27,1.95,8.17,10-1.4,16.83-1.4,16.83s17.9,5.2,7.45,17.52H74.47C60.93,366.66,84.14,359.91,84.14,359.91Z" style="fill: rgb(224, 224, 224); transform-origin: 123.947px 352.035px;" id="elf56qiz5gxba" class="animable"></path></g><g id="freepik--Shadow--inject-58" class="animable" style="transform-origin: 250px 416.24px;"><ellipse cx="250" cy="416.24" rx="193.89" ry="11.32" style="fill: rgb(245, 245, 245); transform-origin: 250px 416.24px;" id="elf0p462y3b1h" class="animable"></ellipse></g><g id="freepik--Character--inject-58" class="animable" style="transform-origin: 247.063px 261.309px;"><g id="el2x2yf2d3qfx"><circle cx="225.21" cy="179.49" r="69.26" style="fill: rgb(25, 118, 210); transform-origin: 225.21px 179.49px; transform: rotate(-3.34deg);" class="animable"></circle></g><g id="elqnvpfrb24s"><circle cx="225.21" cy="179.49" r="69.26" style="fill: rgb(250, 250, 250); opacity: 0.3; transform-origin: 225.21px 179.49px; transform: rotate(-3.34deg);" class="animable"></circle></g><path d="M178.43,125l-.65-.75c1.51-1.31,3.1-2.56,4.71-3.73l.59.81C181.49,122.5,179.92,123.74,178.43,125Z" style="fill: rgb(25, 118, 210); transform-origin: 180.43px 122.76px;" id="elkzn3e0x09jp" class="animable"></path><g id="elkyr6lff3dh"><path d="M178.43,125l-.65-.75c1.51-1.31,3.1-2.56,4.71-3.73l.59.81C181.49,122.5,179.92,123.74,178.43,125Z" style="fill: rgb(250, 250, 250); opacity: 0.3; transform-origin: 180.43px 122.76px;" class="animable"></path></g><path d="M163.48,142.89l-.86-.51a73.47,73.47,0,0,1,10.53-13.76l.72.69A72.62,72.62,0,0,0,163.48,142.89Z" style="fill: rgb(25, 118, 210); transform-origin: 168.245px 135.755px;" id="elttn7cbz1ic9" class="animable"></path><g id="elw6xs6kwtffo"><path d="M163.48,142.89l-.86-.51a73.47,73.47,0,0,1,10.53-13.76l.72.69A72.62,72.62,0,0,0,163.48,142.89Z" style="fill: rgb(250, 250, 250); opacity: 0.3; transform-origin: 168.245px 135.755px;" class="animable"></path></g><path d="M225.16,252.27v-1A72.17,72.17,0,0,0,243,249l.25,1A73.24,73.24,0,0,1,225.16,252.27Z" style="fill: rgb(25, 118, 210); transform-origin: 234.205px 250.635px;" id="elb9qhjuavii" class="animable"></path><g id="elwysunl9jtm"><path d="M225.16,252.27v-1A72.17,72.17,0,0,0,243,249l.25,1A73.24,73.24,0,0,1,225.16,252.27Z" style="fill: rgb(250, 250, 250); opacity: 0.3; transform-origin: 234.205px 250.635px;" class="animable"></path></g><path d="M225.3,243.66a64.08,64.08,0,1,1,25.56-5.34l-.2-.46.2.46A63.79,63.79,0,0,1,225.3,243.66Zm-.16-127.36a63.44,63.44,0,1,0,23.16,4.42A62.84,62.84,0,0,0,225.14,116.3Z" style="fill: rgb(250, 250, 250); transform-origin: 225.25px 179.58px;" id="el1nmfahep4bm" class="animable"></path><path d="M235.64,242.35a26.13,26.13,0,0,1-9-1.67c-13.8-5.06-27-21.22-34.52-42.17-11.8-33-6.61-68.38,11.55-78.89,6-3.47,12.94-3.93,20.06-1.32,13.79,5.06,27,21.22,34.51,42.17,11.8,33,6.62,68.38-11.55,78.89l-.25-.43.25.43A21.84,21.84,0,0,1,235.64,242.35ZM214.79,117.63a21,21,0,0,0-10.59,2.85c-17.77,10.28-22.75,45.14-11.1,77.7,7.39,20.67,20.39,36.6,33.92,41.56,6.83,2.5,13.47,2.07,19.2-1.24C264,228.22,269,193.36,257.33,160.8c-7.39-20.67-20.39-36.6-33.92-41.56A25.07,25.07,0,0,0,214.79,117.63Z" style="fill: rgb(250, 250, 250); transform-origin: 225.181px 179.491px;" id="eltp73ijxh68a" class="animable"></path><path d="M163.52,195.76a.5.5,0,0,1-.13-1l123.4-31.53a.48.48,0,0,1,.6.36.5.5,0,0,1-.36.61L163.64,195.74Z" style="fill: rgb(250, 250, 250); transform-origin: 225.179px 179.488px;" id="el7lrrd5v38y" class="animable"></path><path d="M241,241.69a.49.49,0,0,1-.48-.38L209,117.92a.51.51,0,0,1,.36-.61.5.5,0,0,1,.61.36l31.53,123.39a.5.5,0,0,1-.36.61Z" style="fill: rgb(250, 250, 250); transform-origin: 225.251px 179.492px;" id="el6hawzg6bj2p" class="animable"></path><path d="M180.63,225.45a.5.5,0,0,1-.49-.38.49.49,0,0,1,.36-.6l105.49-27a.5.5,0,0,1,.61.36.51.51,0,0,1-.36.61l-105.49,27A.25.25,0,0,1,180.63,225.45Z" style="fill: rgb(250, 250, 250); transform-origin: 233.369px 211.454px;" id="elatyq36z5zxu" class="animable"></path><path d="M164.32,161.49a.5.5,0,0,1-.13-1l105.49-26.95a.5.5,0,0,1,.61.36.5.5,0,0,1-.36.6l-105.49,27Z" style="fill: rgb(250, 250, 250); transform-origin: 217.028px 147.512px;" id="eltdgc919fug" class="animable"></path><polygon points="208.98 201.96 225.21 154.25 218.8 154.25 195.41 179.05 179.13 203.02 185.54 203.02 200.42 188.15 202.57 201.96 208.98 201.96" style="fill: rgb(38, 50, 56); transform-origin: 202.17px 178.635px;" id="elavwzfro1x8" class="animable"></polygon><polygon points="202.57 201.96 218.8 154.25 171.09 170.48 184.91 179.05 170.03 193.93 179.13 203.02 194 188.15 202.57 201.96" style="fill: rgb(250, 250, 250); transform-origin: 194.415px 178.635px;" id="el8x27mqwv2lb" class="animable"></polygon><polygon points="315.99 408.07 323.23 406.06 319.3 389.09 312.06 391.1 315.99 408.07" style="fill: rgb(228, 137, 123); transform-origin: 317.645px 398.58px;" id="elhvkvqzciimr" class="animable"></polygon><polygon points="240.13 392.06 240.13 392.07 238.39 401.04 236.85 409.01 229.42 407.84 230.79 401.04 232.61 392.07 232.61 392.06 240.13 392.06" style="fill: rgb(228, 137, 123); transform-origin: 234.775px 400.535px;" id="elzelm9l474to" class="animable"></polygon><path d="M237.51,408.23l-8.34-1.31a.67.67,0,0,0-.72.4l-2.51,6.37a1.11,1.11,0,0,0,.88,1.49c2.92.41,4.36.47,8,1.05a118.29,118.29,0,0,0,17.31.91c3.08,0,3.56-3.12,2.27-3.4-5.79-1.26-14.22-2.92-15.79-4.86A1.82,1.82,0,0,0,237.51,408.23Z" style="fill: rgb(38, 50, 56); transform-origin: 240.469px 412.039px;" id="el81wzq6jayb5" class="animable"></path><path d="M323,405.24,315,407.43a.65.65,0,0,0-.48.67l.35,6.83a1.1,1.1,0,0,0,1.4,1c2.84-.84,6.92-2.15,10.51-3.14,4.19-1.16,7.88-1.94,12.8-3.3,3-.83,3-4.06,1.64-4-6,.33-10.67,1.48-16.41-.18A3.51,3.51,0,0,0,323,405.24Z" style="fill: rgb(38, 50, 56); transform-origin: 328.306px 410.563px;" id="elfd39t0jwhql" class="animable"></path><polygon points="319.3 389.09 321.33 397.84 314.08 399.85 312.06 391.1 319.3 389.09" style="fill: rgb(206, 111, 100); transform-origin: 316.695px 394.47px;" id="eli5877hmjwkp" class="animable"></polygon><polygon points="240.13 392.07 238.39 401.04 230.79 401.04 232.61 392.07 240.13 392.07" style="fill: rgb(206, 111, 100); transform-origin: 235.46px 396.555px;" id="eluhrdgvdbsc" class="animable"></polygon><path d="M293.61,218.25H253.4c-.16-3.46,1-14.45,1-28.56A199.27,199.27,0,0,0,252.32,160q-.54-3.57-1.27-7.14a103.47,103.47,0,0,1,13.46-1.7,147.52,147.52,0,0,1,17.09,0,75.18,75.18,0,0,1,11.56,2.08S302,176,293.61,218.25Z" style="fill: rgb(25, 118, 210); transform-origin: 274.138px 184.581px;" id="el12zbuqphivr" class="animable"></path><g id="elhaz5r1gfgvj"><path d="M293.61,218.25H253.4c-.16-3.46,1-14.45,1-28.56A199.27,199.27,0,0,0,252.32,160q-.54-3.57-1.27-7.14a103.47,103.47,0,0,1,13.46-1.7,147.52,147.52,0,0,1,17.09,0,75.18,75.18,0,0,1,11.56,2.08S302,176,293.61,218.25Z" style="opacity: 0.2; transform-origin: 274.138px 184.581px;" class="animable"></path></g><path d="M258.77,172.24a155.13,155.13,0,0,1-4.38,17.45A199.27,199.27,0,0,0,252.32,160C256.91,160.85,260,165.19,258.77,172.24Z" style="fill: rgb(25, 118, 210); transform-origin: 255.681px 174.845px;" id="el38dqlncqkcn" class="animable"></path><g id="elp4osl0dw3od"><path d="M258.77,172.24a155.13,155.13,0,0,1-4.38,17.45A199.27,199.27,0,0,0,252.32,160C256.91,160.85,260,165.19,258.77,172.24Z" style="opacity: 0.4; transform-origin: 255.681px 174.845px;" class="animable"></path></g><path d="M285,168.58h-9.48a.5.5,0,0,1-.5-.5.51.51,0,0,1,.5-.5H285a.51.51,0,0,1,.5.5A.5.5,0,0,1,285,168.58Z" style="fill: rgb(250, 250, 250); transform-origin: 280.26px 168.08px;" id="eltg3h9jcqu3j" class="animable"></path><path d="M285,172.83h-9.48a.5.5,0,0,1,0-1H285a.5.5,0,0,1,0,1Z" style="fill: rgb(250, 250, 250); transform-origin: 280.26px 172.33px;" id="elhrev9rm2krc" class="animable"></path><path d="M285,177.08h-9.48a.51.51,0,0,1-.5-.5.5.5,0,0,1,.5-.5H285a.5.5,0,0,1,.5.5A.51.51,0,0,1,285,177.08Z" style="fill: rgb(250, 250, 250); transform-origin: 280.26px 176.58px;" id="ell807ewiiza" class="animable"></path><path d="M309.55,196.57c0-.61-.09-1.16-.17-1.69-.26-2.2-.6-4.26-1-6.33-.77-4.1-1.67-8.11-2.66-12.1s-2.05-7.92-3.28-11.87L291,167.92c1,3.83,2.11,7.72,3.19,11.57q1.06,3.8,2.1,7.58l-.33.11c.21,2.12.56,4.15,1,6.21a53,53,0,0,0,1.64,6.27,14.07,14.07,0,0,0,.86,2,5.89,5.89,0,0,0,.6.9,5,5,0,0,0,.92.92c.14.11.37.27.56.39l.44.23a4.2,4.2,0,0,0,.56.23,4.73,4.73,0,0,0,.74.19,4.88,4.88,0,0,0,1,.09,5.31,5.31,0,0,0,2.26-.56,5.2,5.2,0,0,0,1.53-1.18,4.89,4.89,0,0,0,.39-.49,4.49,4.49,0,0,0,.29-.45,6,6,0,0,0,.48-1.13,6.28,6.28,0,0,0,.23-1.06c.06-.47.07-.74.09-1C309.62,197.76,309.58,197.19,309.55,196.57Z" style="fill: rgb(228, 137, 123); transform-origin: 300.294px 184.595px;" id="el9nqruabdgtr" class="animable"></path><path d="M284.24,158.42c-2.54,6.72,10.3,26.53,10.3,26.53l15-8.16a91.64,91.64,0,0,0-8.68-17.6C295.57,151.26,287,151,284.24,158.42Z" style="fill: rgb(25, 118, 210); transform-origin: 296.724px 168.996px;" id="elpjokt2l4vg" class="animable"></path><g id="eliv97dp38vh"><path d="M284.24,158.42c-2.54,6.72,10.3,26.53,10.3,26.53l15-8.16a91.64,91.64,0,0,0-8.68-17.6C295.57,151.26,287,151,284.24,158.42Z" style="opacity: 0.2; transform-origin: 296.724px 168.996px;" class="animable"></path></g><path d="M292.94,152.94a20.19,20.19,0,0,0-6.27-1.4.23.23,0,0,0-.21.34c1.23,2.39,4,7.51,3.71,27.94-.29,18.47,3.86,25.94,5.21,27.87a.29.29,0,0,0,.52-.12l.4-2.51a1,1,0,0,0,0-.39c-.39-1.32-2.61-9.5-1.53-22,1.89-21.94-1.4-29-1.74-29.65A.27.27,0,0,0,292.94,152.94Z" style="fill: rgb(38, 50, 56); transform-origin: 291.376px 179.675px;" id="elp6dad67jz0c" class="animable"></path><polygon points="288.86 178.46 288.16 186.37 294.5 187.31 295.7 178.64 288.86 178.46" style="fill: rgb(228, 137, 123); transform-origin: 291.93px 182.885px;" id="elswy0z1mdbqs" class="animable"></polygon><path d="M301.37,183l-5.67-4.39-1.2,8.68s5.08,3.67,8.59.24Z" style="fill: rgb(228, 137, 123); transform-origin: 298.795px 183.802px;" id="el0cw7quhp979a" class="animable"></path><path d="M266.2,131.94c1.08,5.5,2.16,15.58-1.69,19.25,0,0,2.21,5.58,12.43,5.58,9.34,0,4.66-5.58,4.66-5.58-6.13-1.47-6-6-4.9-10.29Z" style="fill: rgb(228, 137, 123); transform-origin: 273.641px 144.355px;" id="elgglkrj226if" class="animable"></path><path d="M270.48,135.6l6.21,5.3a18,18,0,0,0-.53,3c-2,1.9-5.56-2.91-5.81-5.36A8.3,8.3,0,0,1,270.48,135.6Z" style="fill: rgb(206, 111, 100); transform-origin: 273.483px 139.967px;" id="el1djy4ssewes" class="animable"></path><path d="M283.68,115c3.7,1.57,5.71,11.94,1,14.33S276.68,112.06,283.68,115Z" style="fill: rgb(38, 50, 56); transform-origin: 283.539px 122.116px;" id="eliw9p5xpo5l" class="animable"></path><path d="M265.55,123.67c.46,7.44.35,11.82,4.11,15.65,5.65,5.75,14.85,2.33,16.62-5.1,1.6-6.69.59-17.74-6.7-20.71A10.18,10.18,0,0,0,265.55,123.67Z" style="fill: rgb(228, 137, 123); transform-origin: 276.228px 127.476px;" id="elh7oe6xhw7" class="animable"></path><path d="M287.11,114.11c.45-2-1.45-4.28-3.05-5.61a13.45,13.45,0,0,0-11.43-2.73,17.42,17.42,0,0,0-7.1,2.69l2.14,1c-2.34,1.08-9.17.08-7.94,5-9.9,4.31,4.59,15.76,7.52,16.21,6.39,1-.31-4.82,2.5-10.09a6.69,6.69,0,0,0,.21-5.12c2.83-.54,10.92-.51,14,.62C285.29,115.92,286.88,115.15,287.11,114.11Z" style="fill: rgb(38, 50, 56); transform-origin: 271.747px 118.118px;" id="ela6yljdk2v1d" class="animable"></path><path d="M261.08,115.56s-.89-2.78-4.76-2.18C257.29,113.92,259.84,114.84,261.08,115.56Z" style="fill: rgb(38, 50, 56); transform-origin: 258.7px 114.428px;" id="eldjugk9drzsj" class="animable"></path><path d="M262.19,131.87A7,7,0,0,0,266.6,135c2.43.54,3.51-1.67,2.72-3.89-.71-2-2.84-4.68-5.22-4.22A3.18,3.18,0,0,0,262.19,131.87Z" style="fill: rgb(228, 137, 123); transform-origin: 265.579px 130.96px;" id="elucigcu8q7x8" class="animable"></path><path d="M293.61,218.25s15,59.79,18.07,82.53c3.19,23.64,10.94,95.05,10.94,95.05l-11.95,2.45s-16.79-68.85-21.3-91.83c-4.92-25.06-22.19-88.2-22.19-88.2Z" style="fill: rgb(25, 118, 210); transform-origin: 294.9px 308.265px;" id="elmedb4iip09" class="animable"></path><g id="eld2q73baj3k"><path d="M293.61,218.25s15,59.79,18.07,82.53c3.19,23.64,10.94,95.05,10.94,95.05l-11.95,2.45s-16.79-68.85-21.3-91.83c-4.92-25.06-22.19-88.2-22.19-88.2Z" style="opacity: 0.7; transform-origin: 294.9px 308.265px;" class="animable"></path></g><path d="M275.56,222.67l-3.5,13.69c3.25,12.23,7.6,28.81,11.27,43.72A190.79,190.79,0,0,0,275.56,222.67Z" style="fill: rgb(25, 118, 210); transform-origin: 277.71px 251.375px;" id="el0qwpadg573gl" class="animable"></path><g id="el1f9gzxfoc0e"><path d="M275.56,222.67l-3.5,13.69c3.25,12.23,7.6,28.81,11.27,43.72A190.79,190.79,0,0,0,275.56,222.67Z" style="opacity: 0.8; transform-origin: 277.71px 251.375px;" class="animable"></path></g><path d="M279.35,218.25s-3.42,61.45-8.1,83c-5.13,23.57-29.57,98.08-29.57,98.08H227.91s17.86-72.61,20.79-95.94c3.18-25.33,4.7-85.11,4.7-85.11Z" style="fill: rgb(25, 118, 210); transform-origin: 253.63px 308.79px;" id="elzw92pj5reis" class="animable"></path><g id="elxba41jkv82p"><path d="M279.35,218.25s-3.42,61.45-8.1,83c-5.13,23.57-29.57,98.08-29.57,98.08H227.91s17.86-72.61,20.79-95.94c3.18-25.33,4.7-85.11,4.7-85.11Z" style="opacity: 0.7; transform-origin: 253.63px 308.79px;" class="animable"></path></g><path d="M233.46,391.17h0a.12.12,0,0,1-.11-.14c.12-.7,16.73-65.86,19.36-86.82,2.85-22.75,3.75-77.19,3.81-77.7a.13.13,0,0,1,.25,0c-.06.51-.95,55-3.81,77.7-2.62,21-19.24,86.13-19.35,86.83A.14.14,0,0,1,233.46,391.17Z" style="fill: rgb(25, 118, 210); transform-origin: 245.059px 308.793px;" id="eltx1kathbxl" class="animable"></path><g id="elcr7gpoykut8"><path d="M233.46,391.17h0a.12.12,0,0,1-.11-.14c.12-.7,16.73-65.86,19.36-86.82,2.85-22.75,3.75-77.19,3.81-77.7a.13.13,0,0,1,.25,0c-.06.51-.95,55-3.81,77.7-2.62,21-19.24,86.13-19.35,86.83A.14.14,0,0,1,233.46,391.17Z" style="opacity: 0.3; transform-origin: 245.059px 308.793px;" class="animable"></path></g><path d="M276.84,125.75c0,.6.33,1.09.72,1.09s.72-.49.72-1.09-.32-1.1-.72-1.1S276.84,125.14,276.84,125.75Z" style="fill: rgb(38, 50, 56); transform-origin: 277.56px 125.745px;" id="elnl6v49uwpy" class="animable"></path><path d="M283.7,125.75c0,.6.32,1.09.72,1.09s.71-.49.71-1.09-.32-1.1-.71-1.1S283.7,125.14,283.7,125.75Z" style="fill: rgb(38, 50, 56); transform-origin: 284.415px 125.745px;" id="elkmnin7hp1g" class="animable"></path><path d="M281.52,126.05a21.54,21.54,0,0,0,2.9,5.18,3.48,3.48,0,0,1-2.9.55Z" style="fill: rgb(222, 87, 83); transform-origin: 282.97px 128.969px;" id="el31b3ek0w9ud" class="animable"></path><path d="M279.75,133.45a.18.18,0,0,0,.18-.18.18.18,0,0,0-.18-.17,4.77,4.77,0,0,1-3.91-1.88.18.18,0,0,0-.25-.05.17.17,0,0,0,0,.24A5,5,0,0,0,279.75,133.45Z" style="fill: rgb(38, 50, 56); transform-origin: 277.735px 132.296px;" id="elp8y9a4v2kfi" class="animable"></path><path d="M274.78,123.54a.35.35,0,0,0,.28-.14,2.8,2.8,0,0,1,2.28-1.19.36.36,0,0,0,.38-.33.34.34,0,0,0-.33-.38A3.47,3.47,0,0,0,274.5,123a.35.35,0,0,0,.06.49A.37.37,0,0,0,274.78,123.54Z" style="fill: rgb(38, 50, 56); transform-origin: 276.074px 122.521px;" id="elm7f56kthrym" class="animable"></path><path d="M286.78,123.32a.44.44,0,0,0,.15,0,.35.35,0,0,0,.13-.48,3.5,3.5,0,0,0-2.68-1.84.36.36,0,0,0,0,.71h0a2.8,2.8,0,0,1,2.1,1.48A.36.36,0,0,0,286.78,123.32Z" style="fill: rgb(38, 50, 56); transform-origin: 285.594px 122.163px;" id="elu9xpdvijj6" class="animable"></path><path d="M261.85,182.29c-4.43,2.61-9,5.27-13.38,7.51-.85.43-1.7.83-2.53,1.2.37-1.27.78-2.57,1.2-3.86.81-2.4,1.63-4.82,2.51-7.23L255,165.39,243.94,161c-2,5-3.83,10-5.47,15.11-.81,2.56-1.58,5.15-2.27,7.79a78.15,78.15,0,0,0-1.77,8.27l-.16,1.11,0,.28,0,.44a8.36,8.36,0,0,0-.05.92,8.93,8.93,0,0,0,.26,2.4,7.36,7.36,0,0,0,1.79,3.24,6.94,6.94,0,0,0,3.36,1.89,8.37,8.37,0,0,0,2.53.19,12.26,12.26,0,0,0,3.15-.72,24.39,24.39,0,0,0,4.31-2.08c1.27-.75,2.46-1.53,3.6-2.33a95.36,95.36,0,0,0,12.39-10.64Z" style="fill: rgb(228, 137, 123); transform-origin: 249.913px 181.832px;" id="el9qeaspv913j" class="animable"></path><path d="M251.05,152.89c-7.11,1-15.26,25.68-15.26,25.68L250.73,187s6.58-11.72,9.82-20.42C264,157.46,258.68,151.78,251.05,152.89Z" style="fill: rgb(25, 118, 210); transform-origin: 248.707px 169.876px;" id="el0jzapwtpn3kc" class="animable"></path><g id="elrztj1v77hln"><path d="M251.05,152.89c-7.11,1-15.26,25.68-15.26,25.68L250.73,187s6.58-11.72,9.82-20.42C264,157.46,258.68,151.78,251.05,152.89Z" style="opacity: 0.2; transform-origin: 248.707px 169.876px;" class="animable"></path></g><path d="M254.75,151.68a53.2,53.2,0,0,1,7.61-.74.67.67,0,0,1,.62.4c1.49,3.28,9.86,25.44,8.15,39-1.52,12-13.25,17-16.91,18.32a.82.82,0,0,1-1.09-.78V206a.81.81,0,0,1,.51-.76c2.73-1.09,15.28-6.92,11.55-21.4a186.53,186.53,0,0,0-10.9-31.21A.67.67,0,0,1,254.75,151.68Z" style="fill: rgb(38, 50, 56); transform-origin: 262.245px 179.823px;" id="el8j4zhpro9y" class="animable"></path><path d="M239.76,409.92a2.27,2.27,0,0,0,1.49-.15,1.09,1.09,0,0,0,.51-.88.58.58,0,0,0-.22-.54c-.75-.55-3.38.54-3.68.67a.17.17,0,0,0-.11.16.18.18,0,0,0,.11.17A9.12,9.12,0,0,0,239.76,409.92Zm1.35-1.36a.48.48,0,0,1,.22.08s.09.08.07.22a.71.71,0,0,1-.33.6,3.62,3.62,0,0,1-2.66-.28A7.22,7.22,0,0,1,241.11,408.56Z" style="fill: rgb(25, 118, 210); transform-origin: 239.758px 409.089px;" id="elfkqer93kblr" class="animable"></path><path d="M237.9,409.36H238c.83-.3,2.57-1.69,2.55-2.54a.59.59,0,0,0-.49-.55.94.94,0,0,0-.78.11c-1,.57-1.5,2.68-1.52,2.77a.18.18,0,0,0,.06.17A.16.16,0,0,0,237.9,409.36Zm2-2.78.08,0c.23.07.23.17.23.22,0,.5-1.12,1.58-2,2a4.38,4.38,0,0,1,1.24-2.19A.69.69,0,0,1,239.87,406.58Z" style="fill: rgb(25, 118, 210); transform-origin: 239.154px 407.795px;" id="elt45h8iuxvs" class="animable"></path><path d="M326.32,405.67a2.84,2.84,0,0,0,1.63-.93,1,1,0,0,0,.09-.93.53.53,0,0,0-.41-.37c-1-.26-3.52,2-3.8,2.29a.2.2,0,0,0,0,.21.17.17,0,0,0,.18.1A13.17,13.17,0,0,0,326.32,405.67Zm.89-1.86a.69.69,0,0,1,.34,0,.22.22,0,0,1,.16.15.65.65,0,0,1-.06.61c-.33.52-1.51.92-3.18,1.1A9.64,9.64,0,0,1,327.21,403.81Z" style="fill: rgb(25, 118, 210); transform-origin: 325.958px 404.731px;" id="el0hustrjjslob" class="animable"></path><path d="M324,406l.07,0c.76-.63,2.06-2.68,1.7-3.46-.08-.19-.29-.39-.77-.3a1.25,1.25,0,0,0-.87.55c-.71,1-.37,3-.35,3.11a.16.16,0,0,0,.11.13A.14.14,0,0,0,324,406Zm.95-3.43.11,0c.32-.06.37.06.39.1.21.47-.62,2-1.37,2.81a4.19,4.19,0,0,1,.34-2.5A1,1,0,0,1,325,402.61Z" style="fill: rgb(25, 118, 210); transform-origin: 324.757px 404.125px;" id="ellkcd2j2yfe" class="animable"></path><path d="M259.52,183.88l5.67-4.39,1.2,8.68s-5.09,3.67-8.59.24Z" style="fill: rgb(228, 137, 123); transform-origin: 262.095px 184.682px;" id="elax0ig55dzkg" class="animable"></path><polygon points="272.02 179.31 272.73 187.22 266.39 188.17 265.19 179.49 272.02 179.31" style="fill: rgb(228, 137, 123); transform-origin: 268.96px 183.74px;" id="elntpgfl50v2n" class="animable"></polygon></g><defs>     <filter id="active" height="200%">         <feMorphology in="SourceAlpha" result="DILATED" operator="dilate" radius="2"></feMorphology>                <feFlood flood-color="#32DFEC" flood-opacity="1" result="PINK"></feFlood>        <feComposite in="PINK" in2="DILATED" operator="in" result="OUTLINE"></feComposite>        <feMerge>            <feMergeNode in="OUTLINE"></feMergeNode>            <feMergeNode in="SourceGraphic"></feMergeNode>        </feMerge>    </filter>    <filter id="hover" height="200%">        <feMorphology in="SourceAlpha" result="DILATED" operator="dilate" radius="2"></feMorphology>                <feFlood flood-color="#ff0000" flood-opacity="0.5" result="PINK"></feFlood>        <feComposite in="PINK" in2="DILATED" operator="in" result="OUTLINE"></feComposite>        <feMerge>            <feMergeNode in="OUTLINE"></feMergeNode>            <feMergeNode in="SourceGraphic"></feMergeNode>        </feMerge>            <feColorMatrix type="matrix" values="0   0   0   0   0                0   1   0   0   0                0   0   0   0   0                0   0   0   1   0 "></feColorMatrix>    </filter></defs></svg>